<?xml version="1.0" standalone="no"?>
<!DOCTYPE svg PUBLIC "-//W3C//DTD SVG 20010904//EN"
 "http://www.w3.org/TR/2001/REC-SVG-20010904/DTD/svg10.dtd">
<svg version="1.0" xmlns="http://www.w3.org/2000/svg"
 width="512.000000pt" height="512.000000pt" viewBox="0 0 512.000000 512.000000"
 preserveAspectRatio="xMidYMid meet">

<g transform="translate(0.000000,512.000000) scale(0.100000,-0.100000)"
fill="#000000" stroke="none">
<path d="M3028 5104 c-287 -52 -507 -255 -588 -544 -10 -36 -18 -66 -16 -67 1
-1 26 5 56 14 45 13 66 14 117 6 34 -6 76 -18 94 -27 18 -9 33 -16 34 -16 1 0
5 16 8 35 3 20 22 62 42 95 69 114 186 193 315 213 l70 11 0 148 0 148 -27 -1
c-16 0 -63 -7 -105 -15z"/>
</g>
</svg>
